# Blender v2.68 (sub 0) OBJ File: ''
# www.blender.org
mtllib oil-rig.mtl
o Cube
v 1.645358 2.361442 -1.645358
v 1.645358 2.361442 1.645358
v -1.645358 2.361442 1.645358
v -1.645357 2.361442 -1.645359
v 1.645359 2.655486 -1.645357
v 1.645357 2.655486 1.645359
v -1.645359 2.655486 1.645358
v -1.645358 2.655486 -1.645358
v 0.000000 2.361442 -1.645359
v -0.000000 2.361442 1.645358
v 0.000000 2.655486 -1.645358
v -0.000001 2.655486 1.645358
v 1.645358 2.361442 0.000000
v -1.645358 2.361442 -0.000000
v 1.645358 2.655486 0.000001
v -1.645358 2.655486 -0.000000
v 0.000000 2.361442 -0.000000
v 1.533363 3.829501 -1.533361
v 1.432838 2.361442 -1.432838
v 0.614074 2.361442 -1.432838
v 1.432838 2.361442 -0.614073
v 0.614073 2.361442 -0.614074
v -1.432837 2.361442 -1.432838
v -0.614073 2.361442 -1.432838
v -1.432837 2.361442 -0.614074
v -0.614073 2.361442 -0.614074
v 1.432838 2.361442 1.432838
v 0.614073 2.361442 1.432838
v 1.432838 2.361442 0.614073
v 0.614073 2.361442 0.614073
v -1.432838 2.361442 1.432837
v -0.614074 2.361442 1.432838
v -1.432838 2.361442 0.614073
v -0.614073 2.361442 0.614073
v 1.432838 -0.001846 -1.432838
v 0.614074 -0.001846 -1.432838
v 1.432838 -0.001846 -0.614073
v 0.614073 -0.001846 -0.614074
v -1.432837 -0.001846 -1.432838
v -0.614073 -0.001846 -1.432838
v -1.432837 -0.001846 -0.614074
v -0.614073 -0.001846 -0.614074
v 1.432838 -0.001846 1.432838
v 0.614073 -0.001846 1.432838
v 1.432838 -0.001846 0.614073
v 0.614073 -0.001846 0.614073
v -1.432838 -0.001846 1.432837
v -0.614074 -0.001846 1.432838
v -1.432838 -0.001846 0.614073
v -0.614073 -0.001846 0.614073
v 1.533363 2.972450 -1.533361
v 1.533361 2.972450 1.533363
v -1.533362 2.972450 1.533361
v -1.533362 2.972450 -1.533362
v 0.000000 2.972450 -1.533361
v -0.000001 2.972450 1.533362
v 1.533362 2.972450 0.000001
v -1.533362 2.972450 -0.000000
v -0.000000 2.972450 0.000000
v 0.000000 3.829501 -1.533361
v 1.533362 3.829501 0.000001
v -0.000000 3.829501 0.000000
v 1.089741 5.727262 -1.089740
v 0.443622 5.727262 -1.089740
v 1.089740 5.727262 -0.443621
v 0.443621 5.727262 -0.443621
v -1.938650 2.759118 -1.645358
v -1.938650 2.759118 -0.000000
v -1.826654 3.076082 -1.533362
v -1.826654 3.076082 -0.000000
v 1.645358 2.361442 2.011951
v 1.645357 2.655485 2.011952
v -0.000000 2.361442 2.011951
v -0.000001 2.655485 2.011952
v 1.533361 3.412243 1.533363
v -0.000001 3.412243 1.533362
v 1.533362 3.412243 0.000001
v -0.000000 3.412243 0.000000
v -1.533362 3.204165 1.533361
v -0.000001 3.204165 1.533362
v -1.533362 3.204165 -0.000000
v -0.000000 3.204165 0.000000
v -1.533362 3.204165 0.766680
v -0.766682 3.204165 1.533361
v -2.235967 5.333198 2.801080
v -2.235967 5.333198 2.492314
v -1.927202 5.333198 2.801080
v -1.645358 2.742797 -1.892460
v 0.000001 2.742797 -1.892459
v -1.533361 3.059761 -1.780463
v 0.000000 3.059761 -1.780463
vn 0.000000 -1.000000 0.000000
vn -0.942872 0.333156 -0.000000
vn 1.000000 0.000000 0.000001
vn -0.000000 -0.000001 1.000000
vn -1.000000 -0.000001 -0.000000
vn 0.000000 0.000002 -1.000000
vn -0.000000 0.333156 0.942872
vn -1.000000 -0.000002 -0.000000
vn 0.000000 0.000003 -1.000000
vn 0.000000 0.333156 -0.942872
vn 1.000000 -0.000003 0.000001
vn 0.333156 0.942872 0.000000
vn -1.000000 0.000000 -0.000000
vn 0.000000 0.000000 -1.000000
vn 1.000000 0.000000 0.000000
vn -0.000000 0.000000 1.000000
vn -0.000000 1.000000 0.000000
vn 0.942872 0.333156 0.000001
vn 0.942872 0.333156 0.000000
vn 0.973749 0.227624 0.000001
vn -0.973749 0.227624 -0.000000
vn -0.000000 0.227624 0.973749
vn 0.000000 0.227624 -0.973749
vn -0.333156 -0.942872 -0.000000
vn 0.105303 0.298019 -0.948734
vn -0.000000 -0.000003 1.000000
vn 1.000000 0.000003 0.000000
vn -0.000000 1.000000 0.000003
vn 0.000000 -1.000000 -0.000002
vn -0.000001 0.000000 1.000000
vn -0.949626 -0.313387 -0.000000
vn 0.550414 0.627766 -0.550413
vn -0.000000 -0.511614 0.859215
vn -0.948734 0.298019 0.105302
vn -0.000000 0.942872 0.333156
vn 0.000000 -0.942872 -0.333155
vn -0.000000 0.000001 1.000000
vn -0.000001 0.333156 0.942872
vn -0.949626 -0.313387 -0.000001
usemtl Material
s off
f 10//1 3//1 32//1
f 16//2 7//2 58//2
f 13//3 15//3 6//3
f 10//4 12//4 7//4
f 14//5 16//5 4//5
f 11//6 9//6 8//6
f 13//1 2//1 27//1
f 7//7 12//7 56//7
f 12//8 10//8 73//8
f 5//9 1//9 9//9
f 17//1 14//1 25//1
f 5//10 11//10 55//10
f 1//11 5//11 15//11
f 3//5 7//5 14//5
f 13//1 17//1 21//1
f 58//12 54//12 70//12
f 22//13 20//13 38//13
f 9//1 1//1 20//1
f 17//1 9//1 20//1
f 1//1 13//1 19//1
f 30//14 29//14 46//14
f 4//1 9//1 24//1
f 14//1 4//1 25//1
f 9//1 17//1 24//1
f 31//13 33//13 47//13
f 17//1 13//1 29//1
f 2//1 10//1 28//1
f 10//1 17//1 28//1
f 20//14 19//14 36//14
f 14//1 17//1 33//1
f 17//1 10//1 32//1
f 3//1 14//1 33//1
f 35//1 37//1 36//1
f 40//1 42//1 39//1
f 45//1 43//1 46//1
f 50//1 48//1 49//1
f 34//15 32//15 50//15
f 23//14 24//14 39//14
f 19//15 21//15 35//15
f 33//14 34//14 49//14
f 25//13 23//13 41//13
f 21//16 22//16 37//16
f 29//15 27//15 45//15
f 24//15 26//15 40//15
f 27//16 28//16 43//16
f 26//16 25//16 42//16
f 32//16 31//16 48//16
f 28//13 30//13 44//13
f 56//15 59//15 80//15
f 59//13 56//13 78//13
f 55//17 54//17 59//17
f 57//3 51//3 61//3
f 55//15 11//15 91//15
f 15//18 5//18 57//18
f 12//7 6//7 56//7
f 6//19 15//19 57//19
f 61//20 18//20 65//20
f 59//16 57//16 62//16
f 51//14 55//14 18//14
f 55//13 59//13 60//13
f 63//17 64//17 65//17
f 60//21 62//21 64//21
f 62//22 61//22 66//22
f 18//23 60//23 63//23
f 67//2 68//2 70//2
f 8//24 16//24 67//24
f 54//25 8//25 69//25
f 16//16 58//16 68//16
f 71//26 72//26 74//26
f 2//27 6//27 72//27
f 6//28 12//28 72//28
f 10//29 2//29 73//29
f 77//17 78//17 75//17
f 57//14 59//14 77//14
f 52//15 57//15 75//15
f 56//30 52//30 76//30
f 82//17 81//17 80//17
f 59//14 58//14 82//14
f 53//13 79//13 83//13
f 79//16 53//16 84//16
f 83//31 79//31 85//31
f 87//17 86//17 85//17
f 84//32 83//32 87//32
f 79//33 84//33 85//33
f 89//10 88//10 91//10
f 8//34 54//34 88//34
f 54//35 55//35 90//35
f 11//36 8//36 89//36
f 3//1 31//1 32//1
f 7//2 53//2 58//2
f 2//27 13//27 6//27
f 3//37 10//37 7//37
f 16//8 8//8 4//8
f 9//6 4//6 8//6
f 29//1 13//1 27//1
f 53//7 7//7 56//7
f 74//8 12//8 73//8
f 11//6 5//6 9//6
f 26//1 17//1 25//1
f 51//10 5//10 55//10
f 13//15 1//15 15//15
f 7//5 16//5 14//5
f 17//1 22//1 21//1
f 54//12 69//12 70//12
f 20//13 36//13 38//13
f 1//1 19//1 20//1
f 22//1 17//1 20//1
f 13//1 21//1 19//1
f 29//14 45//14 46//14
f 23//1 4//1 24//1
f 4//1 23//1 25//1
f 17//1 26//1 24//1
f 33//13 49//13 47//13
f 30//1 17//1 29//1
f 27//1 2//1 28//1
f 17//1 30//1 28//1
f 19//14 35//14 36//14
f 17//1 34//1 33//1
f 34//1 17//1 32//1
f 31//1 3//1 33//1
f 37//1 38//1 36//1
f 42//1 41//1 39//1
f 43//1 44//1 46//1
f 48//1 47//1 49//1
f 32//15 48//15 50//15
f 24//14 40//14 39//14
f 21//15 37//15 35//15
f 34//14 50//14 49//14
f 23//13 39//13 41//13
f 22//16 38//16 37//16
f 27//15 43//15 45//15
f 26//15 42//15 40//15
f 28//16 44//16 43//16
f 25//16 41//16 42//16
f 31//16 47//16 48//16
f 30//13 46//13 44//13
f 59//15 82//15 80//15
f 56//13 76//13 78//13
f 54//17 58//17 59//17
f 51//3 18//3 61//3
f 11//15 89//15 91//15
f 5//18 51//18 57//18
f 6//38 52//38 56//38
f 52//19 6//19 57//19
f 18//20 63//20 65//20
f 57//16 61//16 62//16
f 55//14 60//14 18//14
f 59//13 62//13 60//13
f 64//17 66//17 65//17
f 62//21 66//21 64//21
f 61//22 65//22 66//22
f 60//23 64//23 63//23
f 69//2 67//2 70//2
f 16//24 68//24 67//24
f 8//25 67//25 69//25
f 58//16 70//16 68//16
f 73//4 71//4 74//4
f 71//27 2//27 72//27
f 12//28 74//28 72//28
f 2//29 71//29 73//29
f 78//17 76//17 75//17
f 59//14 78//14 77//14
f 57//15 77//15 75//15
f 52//30 75//30 76//30
f 81//17 83//17 80//17
f 83//17 84//17 80//17
f 58//14 81//14 82//14
f 58//13 53//13 81//13
f 53//13 83//13 81//13
f 53//16 56//16 80//16
f 84//37 53//37 80//37
f 86//39 83//39 85//39
f 83//32 86//32 87//32
f 84//33 87//33 85//33
f 88//10 90//10 91//10
f 54//34 90//34 88//34
f 55//35 91//35 90//35
f 8//36 88//36 89//36
