# Blender v2.68 (sub 0) OBJ File: 'planes.blend'
# www.blender.org
mtllib plane_collision_mesh.mtl
o phy_plane_collision_Cube.001
v -0.310190 -0.253970 0.589581
v -0.310190 -0.253970 -0.268296
v 0.310190 -0.253970 -0.268296
v 0.310190 -0.253970 0.589581
v -0.193991 0.507951 0.665297
v -0.193991 0.528250 -0.176826
v 0.193991 0.528250 -0.176826
v 0.193991 0.507951 0.665297
v -0.189771 -0.210475 1.696160
v 0.189771 -0.210475 1.696160
v -0.118682 0.169067 1.696160
v 0.118682 0.169067 1.696160
v -0.154464 0.058979 -1.873985
v 0.154464 0.058979 -1.873985
v -0.096601 0.367907 -1.873985
v 0.096601 0.367907 -1.873985
v -0.310190 -0.119742 -0.268296
v -0.310190 -0.119742 0.589581
v 0.310190 -0.119742 -0.268296
v 0.310190 -0.119742 0.589581
v -2.044253 -0.117287 0.443554
v -2.044253 -0.117287 -0.176826
v 2.044253 -0.117287 -0.176826
v 2.044253 -0.117287 0.443554
v -2.044253 0.016941 -0.176826
v -2.044253 0.016941 0.443554
v 2.044253 0.016941 -0.176826
v 2.044253 0.016941 0.443554
vn 0.078579 0.996908 -0.000000
vn 0.000000 0.995567 -0.094058
vn -0.052676 0.000000 -0.998612
vn -0.000000 0.949985 0.312296
vn -0.000000 -1.000000 0.000000
vn 0.000000 0.999710 0.024098
vn 0.000000 -0.000000 1.000000
vn -0.978069 0.165864 0.125978
vn 0.000000 -0.999228 0.039275
vn 0.978069 0.165864 0.125978
vn 0.000000 0.000000 -1.000000
vn -0.979753 0.186108 -0.073805
vn 0.979753 0.186108 -0.073805
vn 0.000000 -0.981532 -0.191300
vn -0.984395 0.175924 0.004241
vn 0.984395 0.175924 0.004241
vn -1.000000 0.000000 0.000000
vn 1.000000 -0.000000 0.000000
vn -0.078579 0.996908 0.000000
vn 0.078579 -0.996908 0.000000
vn -0.078579 -0.996908 -0.000000
vn -0.083914 0.000000 0.996473
vn 0.052676 0.000000 -0.998612
vn 0.083914 -0.000000 0.996473
vn -0.985353 0.000000 0.170528
vn -0.978056 0.183192 0.099232
vn 0.985353 0.000000 0.170528
vn 0.978056 0.183192 0.099232
vn -0.991269 -0.000000 -0.131858
vn -0.981175 0.183776 -0.059340
vn 0.991269 0.000000 -0.131858
vn 0.981175 0.183776 -0.059340
vn -0.983293 0.182027 0.000000
vn 0.983294 0.182027 -0.000000
usemtl None
s off
f 18//1 17//1 25//1
f 6//2 7//2 15//2
f 17//3 2//3 25//3
f 8//4 5//4 12//4
f 1//5 2//5 4//5
f 8//6 7//6 5//6
f 12//7 11//7 10//7
f 5//8 18//8 11//8
f 1//9 4//9 9//9
f 20//10 8//10 12//10
f 15//11 16//11 13//11
f 17//12 6//12 15//12
f 7//13 19//13 16//13
f 3//14 2//14 14//14
f 5//15 6//15 17//15
f 7//16 8//16 19//16
f 26//17 25//17 21//17
f 27//18 28//18 23//18
f 19//19 20//19 27//19
f 4//20 3//20 23//20
f 2//21 1//21 22//21
f 1//22 18//22 26//22
f 3//23 19//23 27//23
f 20//24 4//24 28//24
f 26//1 18//1 25//1
f 7//2 16//2 15//2
f 2//3 22//3 25//3
f 5//4 11//4 12//4
f 2//5 3//5 4//5
f 7//6 6//6 5//6
f 11//7 9//7 10//7
f 18//25 1//25 11//25
f 1//26 9//26 11//26
f 4//9 10//9 9//9
f 4//27 20//27 12//27
f 10//28 4//28 12//28
f 16//11 14//11 13//11
f 2//29 17//29 15//29
f 13//30 2//30 15//30
f 19//31 3//31 16//31
f 3//32 14//32 16//32
f 2//14 13//14 14//14
f 18//33 5//33 17//33
f 8//34 20//34 19//34
f 25//17 22//17 21//17
f 28//18 24//18 23//18
f 20//19 28//19 27//19
f 24//20 4//20 23//20
f 1//21 21//21 22//21
f 21//22 1//22 26//22
f 23//23 3//23 27//23
f 4//24 24//24 28//24
